<?xml version="1.0" encoding="utf-8"?>
<!-- Generator: Adobe Illustrator 23.0.1, SVG Export Plug-In . SVG Version: 6.00 Build 0)  -->
<svg version="1.1" id="Layer_1" xmlns="http://www.w3.org/2000/svg" xmlns:xlink="http://www.w3.org/1999/xlink" x="0px" y="0px"
	 viewBox="0 0 23.24 23" style="enable-background:new 0 0 23.24 23;" xml:space="preserve">
<g>
	<path d="M11.5,23C5.2,23,0,17.8,0,11.5V11h1v0.5C1,17.3,5.7,22,11.5,22S22,17.3,22,11.5S17.3,1,11.5,1H11V0h0.5
		C17.8,0,23,5.2,23,11.5S17.8,23,11.5,23z"/>
	<polygon points="8,14.1 7.5,13.3 11,11.2 11,4 12,4 12,11.5 11.8,11.9 	"/>
	<path d="M0.2,9.1l0.2-1l1,0.2l-0.2,1C0.2,9.1,1.2,9.4,0.2,9.1z M1.2,6.2l0.5-0.9l0.9,0.5l-0.5,1C1.2,6.2,2.1,6.8,1.2,6.2z M3,3.8
		L3.7,3l0.7,0.7L4,4.1l0,0L3.7,4.5C3,3.8,3.7,4.5,3,3.8z M5.3,1.8l0.4-0.2l0,0l0.4-0.2l0.5,0.9L5.8,2.7C5.3,1.8,5.8,2.7,5.3,1.8z
		 M8,0.5l1-0.2l0.3,1L8.8,1.4l0,0L8.3,1.5C8,0.5,8.3,1.5,8,0.5z M11.5,1H11V0h1v1C11.5,1,12,1,11.5,1z"/>
</g>
</svg>
