<svg xmlns="http://www.w3.org/2000/svg" viewBox="0 0 62.9 88.02"><defs><style>.cls-1{fill:#6e3996;}</style></defs><title>Asset 1</title><g id="Layer_2" data-name="Layer 2"><g id="Layer_1-2" data-name="Layer 1"><path class="cls-1" d="M31.6,88h0a4.41,4.41,0,0,1-3.8-2.1l-22-36.3A31.43,31.43,0,0,1,30.3,0a31.49,31.49,0,0,1,27,49.4L35.4,85.92A4.41,4.41,0,0,1,31.6,88ZM31.4,3h-1A28.4,28.4,0,0,0,8.3,47.92l.1.1,22,36.3a1.53,1.53,0,0,0,1.2.7h0a1.53,1.53,0,0,0,1.2-.7l21.8-36.5.1-.1a28.26,28.26,0,0,0-3.2-36.2A28.08,28.08,0,0,0,31.4,3Zm0,40.8A12.8,12.8,0,1,1,44.2,31,12.76,12.76,0,0,1,31.4,43.82Zm0-22.6A9.8,9.8,0,1,0,41.2,31,9.82,9.82,0,0,0,31.4,21.22Z"/></g></g></svg>