<?xml version="1.0" encoding="utf-8"?>
<!-- Generator: Adobe Illustrator 21.1.0, SVG Export Plug-In . SVG Version: 6.00 Build 0)  -->
<svg version="1.1" id="Capa_1" xmlns="http://www.w3.org/2000/svg" xmlns:xlink="http://www.w3.org/1999/xlink" x="0px" y="0px"
	 viewBox="0 0 530 523" style="enable-background:new 0 0 530 523;" xml:space="preserve">
<style type="text/css">
	.st0{fill:#323232;}
</style>
<path class="st0" d="M35.1,516.8c-10.3,0-20-5.5-25.2-14.4c-5.1-8.5-5.2-19.2-0.3-27.8l52.5-93.9c5.3-9.2,15.1-14.9,25.7-14.9h61
	c6.4,0,11.5,5.2,11.5,11.5s-5.2,11.5-11.5,11.5h-61c-2.3,0-4.4,1.2-5.6,3.2l-52.4,93.8c-0.9,1.5-0.9,3.4,0,4.9
	c1.2,1.9,3.2,3.1,5.5,3.1h459.5c2.2,0,4.3-1.2,5.5-3.1c0.9-1.5,0.9-3.3,0.1-4.8L447.9,392c-1.1-1.9-3.3-3.1-5.5-3.1h-61
	c-6.4,0-11.5-5.2-11.5-11.5s5.2-11.5,11.5-11.5h61c10.6,0,20.4,5.7,25.7,14.9l52.5,93.9c4.9,8.6,4.8,19.3-0.3,27.8
	c-5.2,8.9-14.9,14.4-25.2,14.4L35.1,516.8L35.1,516.8L35.1,516.8z M384.5,482.6c-6.4,0-11.5-5.2-11.5-11.5s5.2-11.5,11.5-11.5h68.3
	c6.4,0,11.5,5.2,11.5,11.5s-5.2,11.5-11.5,11.5H384.5z M77.3,482.6c-6.4,0-11.5-5.2-11.5-11.5s5.2-11.5,11.5-11.5h68.3
	c6.4,0,11.5,5.2,11.5,11.5s-5.2,11.5-11.5,11.5H77.3z M196.7,457c-6.4,0-11.5-5.2-11.5-11.5c0-6.4,5.2-11.5,11.5-11.5h35.7
	c-0.6-0.7-1.2-1.4-1.7-2.1c-14.1-17.3-35.3-44.2-56.2-73.6c-20.9-28.9-40-59.6-56.6-91.2c-17.7-34.7-26.6-63.6-26.6-85.9
	c0-23.4,4.5-46.1,13.7-67.7C132.2,49,195.1,7.2,265.2,7.2c23.2,0,45.9,4.6,67.5,13.7c3.8,1.6,6.4,5.1,7,9.2
	c0.5,4.1-1.2,8.1-4.5,10.6c-2,1.5-4.5,2.3-6.9,2.3c-1.6,0-3.1-0.3-4.5-0.9c-18.6-7.8-38.4-11.8-58.6-11.8s-40,4-58.6,11.8
	c-55.9,23.7-92,78.2-92,139c0,18.7,8.1,44,24.1,75.3c16.1,30.6,34.5,60.3,54.8,88.4c20.8,29.3,41.5,55.5,55.3,72.4
	c4.1,5,8.2,9.9,12.2,14.7c1,1.2,2.6,1.9,4.2,1.9s3.2-0.7,4.2-1.9c4-4.8,8.1-9.8,12.2-14.7c13.8-16.9,34.6-43.2,55.3-72.4
	c20.3-28,38.8-57.8,54.9-88.4c16-31.3,24.1-56.7,24.1-75.3c0.1-40.3-15.6-78.2-44.1-106.7c-3-2.9-4.2-7.2-3.1-11.2s4.2-7.2,8.2-8.2
	c1-0.2,1.9-0.4,2.9-0.4c3.1,0,6.1,1.3,8.3,3.5c32.8,32.8,50.9,76.5,50.8,122.9c0,22.3-8.9,51.1-26.6,85.8
	c-16.6,31.6-35.7,62.3-56.6,91.3c-21.4,30.2-42.4,56.7-56.2,73.6c-0.6,0.7-1.2,1.4-1.7,2.1h35.7c6.4,0,11.5,5.2,11.5,11.5
	c0,6.4-5.2,11.5-11.5,11.5H196.7V457z M367.4,448.5c-3.9,0-7.5-1.9-9.6-5.1c-3.5-5.3-2.1-12.5,3.2-16l25.6-17.1
	c1.9-1.3,4.1-1.9,6.4-1.9h34.1c6.4,0,11.5,5.2,11.5,11.5c0,6.4-5.2,11.5-11.5,11.5h-30.7l-22.7,15.1
	C371.9,447.8,369.7,448.5,367.4,448.5z M162.6,448.5c-2.3,0-4.5-0.7-6.4-1.9l-22.7-15.1h-30.7c-6.4,0-11.5-5.2-11.5-11.5
	s5.2-11.5,11.5-11.5H137c2.3,0,4.5,0.7,6.4,1.9l25.6,17.1c4.3,2.8,6.1,8,4.6,12.9C172.2,445.2,167.7,448.5,162.6,448.5L162.6,448.5z
	 M265,260.8c-11.6,0-23-2.3-33.8-6.7c-38.8-16.1-61-57.6-52.8-98.8C186.6,114,223,84.1,265,84.1l0,0c6.4,0,11.5,5.2,11.5,11.5
	s-5.2,11.5-11.5,11.5c-31,0-58,22.1-64,52.5c-6.1,30.4,10.4,61.2,39,73c8,3.3,16.4,5,24.9,5c21.9,0,42.2-10.8,54.3-29
	c17.2-25.8,13.8-60.5-8.1-82.4c-3-2.9-4.2-7.2-3.1-11.2s4.2-7.2,8.2-8.2c1-0.2,1.9-0.4,2.9-0.4c3.1,0,6.1,1.3,8.3,3.5
	c29.7,29.7,34.3,76.6,10.9,111.5C322,246.1,294.6,260.8,265,260.8z"/>
</svg>
