<?xml version="1.0" encoding="utf-8"?>
<!-- Generator: Adobe Illustrator 21.1.0, SVG Export Plug-In . SVG Version: 6.00 Build 0)  -->
<svg version="1.1" id="Capa_1" xmlns="http://www.w3.org/2000/svg" xmlns:xlink="http://www.w3.org/1999/xlink" x="0px" y="0px"
	 viewBox="0 0 471.2 528.8" style="enable-background:new 0 0 471.2 528.8;" xml:space="preserve">
<style type="text/css">
	.st0{fill:#713D98;}
	.st1{display:none;}
	.st2{display:inline;}
</style>
<path class="st0" d="M308.5,520.7c-5.8,0-10.5-4.7-10.5-10.5s4.7-10.5,10.5-10.5h7.7v-65.9H152.9v65.9h7.7c5.8,0,10.5,4.7,10.5,10.5
	s-4.7,10.5-10.5,10.5h-75c-5.8,0-10.5-4.7-10.5-10.5s4.7-10.5,10.5-10.5h7.7v-65.9H79.2c-13.5,0-24.6-11-24.6-24.6v-12.3
	c-15.2-2.7-26.8-16.2-26.8-31.9v-92.8h-0.4C17.3,272.2,9,264,9,253.8v-20.3c0-10.1,8.2-18.4,18.4-18.4h99.3
	c10.1,0,18.4,8.2,18.4,18.4v20.3c0,10.1-8.2,18.4-18.4,18.4h-0.4v25.4c6.4-3.8,13.7-5.7,21.2-5.7h174c7.6,0,14.8,2,21.2,5.7v-25.4
	c-9.4-0.8-16.8-8.7-16.8-18.3v-20.3c0-10.1,8.2-18.4,18.4-18.4h99.3c10.1,0,18.4,8.2,18.4,18.4v20.3c0,10.1-8.2,18.4-18.4,18.4h-2.4
	V365c0,15.7-11.6,29.2-26.8,31.9v12.3c0,13.5-11,24.6-24.6,24.6h-14.2v65.9h7.7c5.8,0,10.5,4.7,10.5,10.5c0,5.8-4.7,10.5-10.5,10.5
	L308.5,520.7L308.5,520.7z M354.8,499.7v-65.9h-17.5v65.9H354.8z M131.9,499.7v-65.9h-17.5v65.9H131.9z M75.7,409.2
	c0,2,1.6,3.5,3.5,3.5H390c2,0,3.5-1.6,3.5-3.5v-11.8H75.7V409.2z M48.9,365c0,6.3,5.1,11.3,11.4,11.4h45.1V272.2H48.9V365z
	 M409,376.3c6.3,0,11.4-5.1,11.4-11.3v-92.7h-56.5v104.1H409V376.3z M342.9,376.3V334c0-11.7-9.5-21.2-21.2-21.2h-174
	c-11.7,0-21.2,9.5-21.2,21.2v42.3H342.9z M441.1,251.3v-15.1H347v15.1H441.1z M124.1,251.2v-15.1h-94v15.1H124.1z M303.6,232.9
	c-5.8,0-10.5-4.7-10.5-10.5v-3.9h-3.9c-5.8,0-10.5-4.7-10.5-10.5s4.7-10.5,10.5-10.5h3.9v-3.9c0-5.8,4.7-10.5,10.5-10.5
	s10.5,4.7,10.5,10.5v3.9h3.9c5.8,0,10.5,4.7,10.5,10.5s-4.7,10.5-10.5,10.5h-3.9v3.9C314.1,228.2,309.4,232.9,303.6,232.9z
	 M167.5,232.9c-5.8,0-10.5-4.7-10.5-10.5v-3.9h-3.9c-5.8,0-10.5-4.7-10.5-10.5s4.7-10.5,10.5-10.5h3.9v-3.9
	c0-5.8,4.7-10.5,10.5-10.5s10.5,4.7,10.5,10.5v3.9h3.9c5.8,0,10.5,4.7,10.5,10.5s-4.7,10.5-10.5,10.5H178v3.9
	C178,228.2,173.3,232.9,167.5,232.9z M394.7,201c-5.8,0-10.5-4.7-10.5-10.5l-0.6-123c0-24.2-19.7-43.9-43.8-43.9H129.4
	c-24.2,0-43.8,19.7-43.8,43.8v123c0,5.8-4.7,10.5-10.5,10.5s-10.5-4.7-10.5-10.5v-123c0-35.8,29.1-64.8,64.8-64.8h210.3
	c17.3,0,33.6,6.8,45.8,19c12.3,12.3,19,28.5,19,45.8l0.6,122.9c0,2.8-1.1,5.4-3,7.4C400.2,199.9,397.5,201,394.7,201L394.7,201
	L394.7,201z M303.6,129.8c-5.8,0-10.5-4.7-10.5-10.5v-3.9h-3.9c-5.8,0-10.5-4.7-10.5-10.5s4.7-10.5,10.5-10.5h3.9v-3.9
	c0-5.8,4.7-10.5,10.5-10.5s10.5,4.7,10.5,10.5v3.9h3.9c5.8,0,10.5,4.7,10.5,10.5s-4.7,10.5-10.5,10.5h-3.9v3.9
	C314.1,125.1,309.4,129.8,303.6,129.8z M167.5,129.8c-5.8,0-10.5-4.7-10.5-10.5v-3.9h-3.9c-5.8,0-10.5-4.7-10.5-10.5
	s4.7-10.5,10.5-10.5h3.9v-3.9c0-5.8,4.7-10.5,10.5-10.5S178,84.7,178,90.5v3.9h3.9c5.8,0,10.5,4.7,10.5,10.5s-4.7,10.5-10.5,10.5
	H178v3.9C178,125.1,173.3,129.8,167.5,129.8z"/>
<g class="st1">
	<g class="st2">
		<path d="M401.6,67.6l0.6,122.9c0,4.1-3.3,7.5-7.5,7.5l0,0c-4.1,0-7.5-3.3-7.5-7.5l-0.6-123c0-25.9-21-46.9-46.8-46.9H129.4
			c-25.8,0-46.8,21-46.8,46.8v123c0,4.1-3.4,7.5-7.5,7.5s-7.5-3.4-7.5-7.5v-123c0-34.1,27.7-61.8,61.8-61.8h210.3
			C373.8,5.7,401.6,33.5,401.6,67.6z"/>
	</g>
</g>
</svg>
