<?xml version="1.0" encoding="utf-8"?>
<!-- Generator: Adobe Illustrator 23.0.1, SVG Export Plug-In . SVG Version: 6.00 Build 0)  -->
<svg version="1.1" id="Layer_1" xmlns="http://www.w3.org/2000/svg" xmlns:xlink="http://www.w3.org/1999/xlink" x="0px" y="0px"
	 viewBox="0 0 68 68" style="enable-background:new 0 0 68 68;" xml:space="preserve">
<title>Artboard 80</title>
<path d="M34,68C15.2,68,0,52.8,0,34S15.2,0,34,0s34,15.2,34,34S52.8,68,34,68L34,68z M34,2C16.3,2,2,16.3,2,34s14.3,32,32,32
	s32-14.3,32-32S51.7,2,34,2z"/>
<path d="M34,68c-0.6,0-1-0.4-1-1V1c0-0.6,0.4-1,1-1s1,0.4,1,1v66C35,67.6,34.6,68,34,68z"/>
<path d="M67,35H1c-0.6,0-1-0.4-1-1s0.4-1,1-1h66c0.6,0,1,0.4,1,1S67.6,35,67,35z"/>
<path d="M63.3,19.9H4.7c-0.6,0-1-0.4-1-1s0.4-1,1-1h58.7c0.6,0,1,0.4,1,1S63.9,19.9,63.3,19.9z"/>
<path d="M63.3,50.1H4.7c-0.6,0-1-0.4-1-1s0.4-1,1-1h58.7c0.6,0,1,0.4,1,1S63.9,50.1,63.3,50.1z"/>
<path d="M34.3,67.8c-0.6,0-1-0.5-0.9-1.1c0-0.3,0.2-0.6,0.4-0.7C43.6,60.6,50,48.2,50,34.3c0-14.2-6.6-26.7-16.7-31.9
	c-0.5-0.3-0.7-0.9-0.4-1.4s0.9-0.7,1.3-0.4C45,6.2,52,19.4,52,34.3c0,14.6-6.8,27.7-17.2,33.4C34.6,67.8,34.5,67.8,34.3,67.8z"/>
<path d="M33.2,67.8c-0.2,0-0.3,0-0.5-0.1C22.2,62,15.5,48.9,15.5,34.3c0-14.9,7-28.2,17.8-33.7c0.5-0.3,1.1-0.1,1.3,0.4
	c0.3,0.5,0.1,1.1-0.4,1.4C24,7.6,17.5,20.1,17.5,34.3c0,13.8,6.3,26.3,16.1,31.6c0.5,0.3,0.6,0.9,0.4,1.4
	C33.9,67.6,33.5,67.8,33.2,67.8z"/>
</svg>
