<?xml version="1.0" encoding="utf-8"?>
<!-- Generator: Adobe Illustrator 21.1.0, SVG Export Plug-In . SVG Version: 6.00 Build 0)  -->
<svg version="1.1" id="Capa_1" xmlns="http://www.w3.org/2000/svg" xmlns:xlink="http://www.w3.org/1999/xlink" x="0px" y="0px"
	 viewBox="0 0 417.5 407.9" style="enable-background:new 0 0 417.5 407.9;" xml:space="preserve">
<style type="text/css">
	.st0{fill:#713D98;}
</style>
<path class="st0" d="M46.1,407.9c-9.2,0-17.8-3.6-24.2-10.1c-6.4-6.4-10.1-15.2-10.1-24.2V180.1c0-5.8,4.7-10.5,10.5-10.5H407
	c5.8,0,10.4,4.7,10.5,10.5v193.5c0,9-3.7,17.9-10.1,24.2c-6.4,6.4-15.2,10.1-24.3,10.1C383.2,407.9,46.1,407.9,46.1,407.9z
	 M32.8,373.6c0,7.4,6,13.4,13.4,13.4h337c3.5,0,7-1.4,9.4-3.9c2.5-2.5,3.9-5.9,3.9-9.4v-22.1H32.8V373.6z M396.5,330.6v-81.5H32.8
	v81.5H396.5z M396.5,228.2v-37.4h-40.4l-27.4,37.4L396.5,228.2L396.5,228.2z M302.7,228.1l27.3-37.5h-50.5L252.1,228h50.6V228.1z
	 M226.2,228.1l27.3-37.5H203l-27.4,37.5H226.2z M149.7,228.1l27.3-37.5h-50.5L99.1,228h50.6V228.1z M73.2,228.1l27.4-37.5H32.8v37.5
	H73.2z M2.4,162.4c-7.9-23.2,4.4-48.5,27.6-56.5L329.6,3.1c4.7-1.6,9.5-2.4,14.4-2.4c19,0,35.9,12,42.1,30l5.9,17.1
	c2.9,8.8-1.9,18.3-10.6,21.3l-47,16L189.8,135l-72.3,24.9l-16.9,5.8H53.9l-1-5.8l38-13.1l-38.1-26.5l-16,5.5
	c-12.1,4.3-18.7,17.6-14.5,29.8l3.4,9.9l-4,0.2c-4.4,0.2-8.5,2.4-11.1,6l-3.4,4.7L2.4,162.4z M115.5,138.3l47.7-16.3l-38.1-26.5
	l-47.7,16.3L115.5,138.3z M187.9,113.3l47.8-16.5l-38.1-26.5l-47.7,16.5L187.9,113.3z M260.2,88.4l47.7-16.3l-38.1-26.5l-47.7,16.2
	L260.2,88.4z M332.5,63.5l38.2-13.2l-4.3-12.7c-0.6-1.2-1.2-2.4-1.9-3.6c-2-3.4-4.9-6.3-8.3-8.4c-1.5-0.9-3.2-1.6-4.9-2.1
	c-2.5-0.7-5.2-1-7.9-1c-1.4,0-2.8,0.1-4.1,0.3c-3.6,0.5-7.1,1.3-10.5,2.4L294.4,37L332.5,63.5z"/>
</svg>
