<svg xmlns="http://www.w3.org/2000/svg" viewBox="0 0 45.82 45.81"><title>Asset 1</title><g id="Layer_2" data-name="Layer 2"><g id="Layer_6" data-name="Layer 6"><path d="M19.17,0H1.42a1.46,1.46,0,0,0-1,.41,1.46,1.46,0,0,0-.41,1V19.17a1.43,1.43,0,0,0,.41,1,1.46,1.46,0,0,0,1,.41H19.17a1.4,1.4,0,0,0,1.41-1.41V1.42a1.46,1.46,0,0,0-.41-1A1.43,1.43,0,0,0,19.17,0ZM2.83,2.83H17.75V17.75H2.83Z"/><path d="M45.4.41a1.43,1.43,0,0,0-1-.41H26.65a1.42,1.42,0,0,0-1.42,1.42V19.17a1.4,1.4,0,0,0,.42,1,1.43,1.43,0,0,0,1,.41H44.4a1.42,1.42,0,0,0,1.42-1.41V1.42A1.47,1.47,0,0,0,45.4.41ZM28.07,2.83H43V17.75H28.07Z"/><path d="M19.17,25.23H1.42A1.42,1.42,0,0,0,0,26.65V44.4a1.43,1.43,0,0,0,.41,1,1.46,1.46,0,0,0,1,.41H19.17a1.4,1.4,0,0,0,1.41-1.41V26.65a1.41,1.41,0,0,0-.41-1A1.4,1.4,0,0,0,19.17,25.23ZM2.83,28.06H17.75V43H2.83Z"/><path d="M44.4,25.23H26.65a1.4,1.4,0,0,0-1,.42,1.38,1.38,0,0,0-.42,1V44.4a1.4,1.4,0,0,0,.42,1,1.43,1.43,0,0,0,1,.41H44.4a1.42,1.42,0,0,0,1.42-1.41V26.65a1.42,1.42,0,0,0-.42-1A1.4,1.4,0,0,0,44.4,25.23ZM28.07,28.06H43V43H28.07Z"/></g></g></svg>