<svg xmlns="http://www.w3.org/2000/svg" viewBox="0 0 23 23"><defs><style>.cls-1{fill:#6e3996;}</style></defs><title>Asset 1</title><g id="Layer_2" data-name="Layer 2"><g id="Layer_1-2" data-name="Layer 1"><path class="cls-1" d="M11.5,23A11.57,11.57,0,0,1,0,11.5V11H1v.5A10.5,10.5,0,1,0,11.5,1H11V0h.5A11.57,11.57,0,0,1,23,11.5,11.57,11.57,0,0,1,11.5,23Z"/><polygon class="cls-1" points="8 14.1 7.5 13.3 11 11.2 11 4 12 4 12 11.5 11.8 11.9 8 14.1"/><path class="cls-1" d="M.2,9.1l.2-1,1,.2-.2,1C.2,9.1,1.2,9.4.2,9.1Zm1-2.9.5-.9.9.5-.5,1ZM3,3.8,3.7,3l.7.7L4,4.1H4l-.3.4Zm2.3-2,.4-.2h0l.4-.2.5.9-.8.4ZM8,.5,9,.3l.3,1-.5.1h0l-.5.1Zm3.5.5H11V0h1V1Z"/></g></g></svg>