<?xml version="1.0" encoding="utf-8"?>
<!-- Generator: Adobe Illustrator 23.0.1, SVG Export Plug-In . SVG Version: 6.00 Build 0)  -->
<svg version="1.1" id="Layer_1" xmlns="http://www.w3.org/2000/svg" xmlns:xlink="http://www.w3.org/1999/xlink" x="0px" y="0px"
	 viewBox="0 0 44 31" style="enable-background:new 0 0 44 31;" xml:space="preserve">
<style type="text/css">
	.st0{fill:#6E3996;}
</style>
<title>Asset 1</title>
<g>
	<g id="Layer_1-2">
		<path class="st0" d="M41.64,31H2.36C1.06,31,0,29.94,0,28.64c0,0,0,0,0,0V2.36C0,1.06,1.06,0,2.36,0h39.28
			C42.94,0,44,1.06,44,2.36c0,0,0,0,0,0v26.28C44,29.94,42.94,31,41.64,31L41.64,31z M2.36,2C2.16,2,2,2.16,2,2.36v26.28
			C2,28.84,2.16,29,2.36,29c0,0,0,0,0,0h39.28c0.2,0,0.36-0.16,0.36-0.36c0,0,0,0,0,0V2.36C42,2.16,41.84,2,41.64,2l0,0H2.36z
			 M19,20.46c0,0.55,0.54,0.73,1,0.4l6.78-5c0.32-0.24,0.39-0.7,0.15-1.02c-0.06-0.08-0.13-0.14-0.21-0.19L20,9.59
			c-0.44-0.33-1-0.15-1,0.4V20.46z"/>
	</g>
</g>
</svg>
