<?xml version="1.0" encoding="utf-8"?>
<!-- Generator: Adobe Illustrator 22.1.0, SVG Export Plug-In . SVG Version: 6.00 Build 0)  -->
<svg version="1.1" id="Layer_1" xmlns="http://www.w3.org/2000/svg" xmlns:xlink="http://www.w3.org/1999/xlink" x="0px" y="0px"
	 viewBox="0 0 421.3 148.4" style="enable-background:new 0 0 421.3 148.4;" xml:space="preserve">
<style type="text/css">
	.st0{fill:#FFFFFF;}
	.st1{fill:#9676B5;}
</style>
<g>
	<g>
		<path class="st0" d="M225.8,60.2h-14.4v21.5h14.9c7.6,0,12.6-3.4,12.6-10.7C238.9,63.9,233.8,60.2,225.8,60.2 M202.4,52.2H226
			c13.8,0,22.1,6.7,22.1,18.5c0,8.6-4.5,14.2-11.4,16.9v0.5l13.6,17.4v1.3h-10L227,89.6h-15.6v17.3h-9V52.2z"/>
		<polygon class="st0" points="302.3,83.7 274.8,83.7 274.8,98.9 307.2,98.9 307.2,106.9 265.8,106.9 265.8,52.2 307.2,52.2 
			307.2,60.2 274.8,60.2 274.8,76 302.3,76 		"/>
		<polygon class="st0" points="359.7,83.7 332.2,83.7 332.2,98.9 364.6,98.9 364.6,106.9 323.2,106.9 323.2,52.2 364.6,52.2 
			364.6,60.2 332.2,60.2 332.2,76 359.7,76 		"/>
		<polygon class="st0" points="380.6,106.9 380.6,52.2 389.6,52.2 389.6,98.9 419.9,98.9 419.9,106.9 		"/>
		<path class="st1" d="M224.5,144.1c0,0-3,3.5-9.5,3.5c-8.6,0-14.3-6.3-14.3-14.2c0-8,5.7-14.3,14.3-14.3c6.5,0,9.5,3.5,9.5,3.5
			l-2.1,2.9c0,0-2.9-2.8-7.3-2.8c-6.2,0-10.5,4.8-10.5,10.7c0,5.9,4.3,10.7,10.5,10.7c4.6,0,7.3-2.8,7.3-2.8L224.5,144.1z"/>
		<rect x="236.5" y="119.6" class="st1" width="3.7" height="27.3"/>
		<polygon class="st1" points="279,146.9 277.9,146.9 258.5,127.3 258.5,146.9 254.8,146.9 254.8,119.6 255.9,119.6 275.2,139 
			275.2,119.6 279,119.6 		"/>
		<polygon class="st1" points="311.6,135.1 297.3,135.1 297.3,143.5 313.8,143.5 313.8,146.9 293.5,146.9 293.5,119.6 313.8,119.6 
			313.8,123 297.3,123 297.3,131.8 311.6,131.8 		"/>
		<polygon class="st1" points="349.6,127.7 340.4,137.6 339.4,137.6 330.1,127.8 330.1,146.9 326.4,146.9 326.4,119.6 327.4,119.6 
			339.9,132.7 352.3,119.6 353.3,119.6 353.3,146.9 349.6,146.9 		"/>
		<path class="st1" d="M378.2,127h-0.5l-5.3,11.7l-0.3,0.5h11.7l-0.3-0.5L378.2,127z M377.6,119.6h0.8l13.6,27.3h-4.3l-2.2-4.5h-15
			l-2.2,4.5h-4.2L377.6,119.6z"/>
		<path class="st1" d="M402.5,141.4c0,0,3,2.6,8.2,2.6c4.6,0,6.6-1.8,6.6-4.3c0-2.3-1.5-3.5-7.2-5.1c-6.6-1.9-9.5-3.9-9.5-8.1
			c0-4.7,3.8-7.5,10.2-7.5c6.8,0,9.8,2.6,9.8,2.6l-2,3.1c0,0-2.8-2.2-7.8-2.2c-3.7,0-6.3,1.4-6.3,4c0,2,1.7,3.1,7.2,4.6
			c7.1,2,9.6,4.4,9.6,8.5c0,4.5-3.2,8-10.5,8c-7.1,0-10.3-3.3-10.3-3.3L402.5,141.4z"/>
	</g>
	<path class="st0" d="M174.2,134l-31-39.6c19.4-6.3,33.5-24.5,33.5-46C176.6,21.6,155,0,128.3,0c-0.8,0-1.6,0-2.4,0.1H9.9
		C4.4,0.1,0,4.5,0,10v128.5c0,5.5,4.4,9.9,9.9,9.9h39.5v-0.1h8.1c4.3,0,8.3-2.3,10.5-5.9l13.3-22.2l0,0l0,0l0,0l13.3,22.2
		c2.2,3.7,6.2,5.9,10.5,5.9h9v0.1h53.7c4.7,0,8.7-3.7,8.7-8.4C176.6,137.7,175.7,135.5,174.2,134L174.2,134z"/>
</g>
</svg>
