<?xml version="1.0" encoding="utf-8"?>
<!-- Generator: Adobe Illustrator 21.0.2, SVG Export Plug-In . SVG Version: 6.00 Build 0)  -->
<svg version="1.1" id="Layer_1" xmlns="http://www.w3.org/2000/svg" xmlns:xlink="http://www.w3.org/1999/xlink" x="0px" y="0px"
	 viewBox="0 0 32 32" style="enable-background:new 0 0 32 32;" xml:space="preserve">
<style type="text/css">
	.st0{fill:#B7B7B7;}
</style>
<g id="Outline_Color_copy_2">
	<path class="st0" d="M22.9,6.8H9.1c-1.3,0-2.3,1-2.3,2.3v13.7c0,1.3,1,2.3,2.3,2.3h13.7c1.3,0,2.3-1,2.3-2.3V9.1
		C25.2,7.8,24.2,6.8,22.9,6.8z M16,12.4c2,0,3.7,1.6,3.7,3.6s-1.6,3.6-3.7,3.6c-2,0-3.7-1.6-3.7-3.6S14,12.4,16,12.4z M22.9,22.3
		c0,0.4-0.2,0.6-0.6,0.6H9.7c-0.4,0-0.6-0.2-0.6-0.6v-8l1.4,0.3c-0.2,0.5-0.2,1-0.2,1.6c0,3,2.6,5.5,5.7,5.5s5.7-2.5,5.7-5.5
		c0-0.5-0.1-1.1-0.2-1.6l1.4-0.3L22.9,22.3L22.9,22.3z M22.9,12c0,0.3-0.3,0.6-0.6,0.6H20c-0.3,0-0.6-0.3-0.6-0.6V9.7
		c0-0.3,0.3-0.6,0.6-0.6h2.3c0.3,0,0.6,0.3,0.6,0.6V12z"/>
</g>
</svg>
