<?xml version="1.0" encoding="utf-8"?>
<!-- Generator: Adobe Illustrator 21.0.2, SVG Export Plug-In . SVG Version: 6.00 Build 0)  -->
<svg version="1.1" id="Layer_1" xmlns="http://www.w3.org/2000/svg" xmlns:xlink="http://www.w3.org/1999/xlink" x="0px" y="0px"
	 viewBox="0 0 32 32" style="enable-background:new 0 0 32 32;" xml:space="preserve">
<style type="text/css">
	.st0{fill:#B7B7B7;}
</style>
<g id="Outline_Color_copy_2">
	<path class="st0" d="M16.1,25.7c-0.1,0-0.1,0-0.2,0l0,0h-0.1c-1.2,0-2-0.6-2.8-1.1c-0.5-0.4-1-0.7-1.6-0.8c-0.3,0-0.6-0.1-0.8-0.1
		c-0.5,0-0.9,0.1-1.2,0.1c-0.2,0-0.3,0.1-0.4,0.1c-0.1,0-0.2,0-0.3-0.2c0-0.2-0.1-0.3-0.1-0.5c-0.1-0.4-0.1-0.6-0.3-0.7
		c-1.9-0.3-2.5-0.7-2.6-1v-0.1c0-0.1,0.1-0.2,0.2-0.2c3-0.5,4.3-3.5,4.4-3.7l0,0c0.2-0.4,0.2-0.7,0.1-1c-0.2-0.5-0.9-0.7-1.3-0.8
		c-0.1,0-0.2-0.1-0.3-0.1c-0.9-0.3-1-0.7-0.9-0.9c0.1-0.3,0.5-0.5,0.8-0.5c0.1,0,0.2,0,0.2,0c0.4,0.2,0.8,0.3,1.1,0.3
		c0.4,0,0.6-0.2,0.6-0.2c0-0.2,0-0.4,0-0.6c-0.1-1.4-0.2-3.2,0.2-4.2c1.3-3,4.2-3.2,5-3.2h0.4l0,0c0.8,0,3.7,0.2,5,3.2
		c0.4,1,0.3,2.8,0.2,4.2v0.1c0,0.2,0,0.4,0,0.6c0,0,0.2,0.2,0.6,0.2l0,0c0.3,0,0.6-0.1,1-0.3c0.1-0.1,0.2-0.1,0.3-0.1
		c0.1,0,0.3,0,0.4,0.1l0,0c0.3,0.1,0.5,0.3,0.5,0.5s-0.2,0.5-0.9,0.8c-0.1,0-0.2,0.1-0.3,0.1c-0.4,0.1-1.1,0.4-1.3,0.8
		c-0.1,0.3-0.1,0.6,0.1,1l0,0c0.1,0.1,1.4,3.2,4.4,3.7c0.1,0,0.2,0.1,0.2,0.2v0.1c-0.1,0.3-0.7,0.7-2.6,1c-0.2,0-0.2,0.2-0.3,0.7
		c0,0.2-0.1,0.3-0.1,0.5c0,0.1-0.1,0.2-0.3,0.2l0,0c-0.1,0-0.2,0-0.4-0.1c-0.3-0.1-0.7-0.1-1.2-0.1c-0.3,0-0.6,0-0.8,0.1
		c-0.6,0.1-1.1,0.4-1.6,0.8C18.1,25.2,17.4,25.7,16.1,25.7z"/>
</g>
</svg>
