<?xml version="1.0" encoding="utf-8"?>
<!-- Generator: Adobe Illustrator 21.0.2, SVG Export Plug-In . SVG Version: 6.00 Build 0)  -->
<svg version="1.1" id="Layer_1" xmlns="http://www.w3.org/2000/svg" xmlns:xlink="http://www.w3.org/1999/xlink" x="0px" y="0px"
	 viewBox="0 0 32 32" style="enable-background:new 0 0 32 32;" xml:space="preserve">
<style type="text/css">
	.st0{fill:#B7B7B7;}
</style>
<g id="Outline_Color_copy_2">
	<path class="st0" d="M26,11.7c0,0-0.2-1.5-0.8-2.2c-0.8-0.9-1.6-0.9-2-0.9C20.3,8.4,16,8.4,16,8.4l0,0c0,0-4.3,0-7.1,0.2
		c-0.4,0-1.3,0.1-2,0.9C6.2,10.2,6,11.7,6,11.7s-0.2,1.8-0.2,3.5v1.6c0,1.8,0.2,3.5,0.2,3.5s0.2,1.5,0.8,2.2
		c0.8,0.9,1.8,0.8,2.2,0.9c1.6,0.2,6.9,0.2,6.9,0.2s4.3,0,7.1-0.2c0.4-0.1,1.3-0.1,2-0.9c0.6-0.7,0.8-2.2,0.8-2.2s0.2-1.8,0.2-3.5
		v-1.6C26.2,13.4,26,11.7,26,11.7z M13.5,19.8v-7.6l6.4,3.8L13.5,19.8z"/>
</g>
</svg>
