<?xml version="1.0" encoding="utf-8"?>
<!-- Generator: Adobe Illustrator 21.0.2, SVG Export Plug-In . SVG Version: 6.00 Build 0)  -->
<svg version="1.1" id="Layer_1" xmlns="http://www.w3.org/2000/svg" xmlns:xlink="http://www.w3.org/1999/xlink" x="0px" y="0px"
	 viewBox="0 0 32 32" style="enable-background:new 0 0 32 32;" xml:space="preserve">
<style type="text/css">
	.st0{fill:#B7B7B7;}
</style>
<g id="Outline_Color_copy_2">
	<path class="st0" d="M18.3,8.6c-1.7,0.6-2.7,2.2-2.6,3.9v0.7L15.1,13c-2.4-0.3-4.5-1.4-6.3-3.1L7.9,9L7.7,9.7c-0.5,1.4-0.2,3,0.8,4
		C9,14.2,8.9,14.3,8,14c-0.3-0.1-0.6-0.2-0.6-0.1c-0.1,0.1,0.2,1.3,0.5,1.8C8.2,16.4,9,17,9.7,17.4l0.7,0.3H9.6
		c-0.7,0-0.8,0-0.7,0.3c0.3,0.9,1.3,1.8,2.5,2.2l0.8,0.3l-0.7,0.4c-1.1,0.6-2.3,1-3.6,1c-0.6,0-1.1,0.1-1.1,0.1
		c0,0.1,1.6,0.9,2.6,1.2c2.8,0.9,6.2,0.5,8.7-1c1.8-1.1,3.6-3.2,4.4-5.2c0.5-1.1,0.9-3.1,0.9-4c0-0.6,0-0.7,0.8-1.4
		c0.4-0.4,0.9-0.9,0.9-1c0.1-0.3,0.1-0.3-0.6,0c-1.1,0.4-1.3,0.4-0.7-0.3c0.4-0.4,0.9-1.2,0.9-1.4c0,0-0.2,0-0.4,0.1
		c-0.2,0.1-0.8,0.3-1.2,0.5l-0.7,0.2l-0.7-0.4c-0.4-0.2-0.9-0.5-1.1-0.6C20,8.3,18.9,8.3,18.3,8.6z"/>
</g>
</svg>
